<?xml version="1.0" encoding="utf-8"?>
<!-- Generator: Adobe Illustrator 25.4.1, SVG Export Plug-In . SVG Version: 6.00 Build 0)  -->
<svg version="1.1" id="Layer_1" xmlns="http://www.w3.org/2000/svg" xmlns:xlink="http://www.w3.org/1999/xlink" x="0px" y="0px"
	 viewBox="0 0 201.9 67" style="enable-background:new 0 0 201.9 67;" xml:space="preserve">
<style type="text/css">
	.st0{fill:#E9B30A;}
	.st1{fill:#5D5D5C;}
	.st2{fill-rule:evenodd;clip-rule:evenodd;fill:#0A0A0A;}
	.st3{fill-rule:evenodd;clip-rule:evenodd;fill:#FEFEFE;}
	.st4{fill-rule:evenodd;clip-rule:evenodd;fill:#E9B30A;}
	.st5{fill-rule:evenodd;clip-rule:evenodd;fill:#ED1B23;}
</style>
<g id="Layer_13">
	<g>
		<g>
			<g>
				<path class="st0" d="M81.1,27.4c0-6,0-7.6-0.1-9.1h5.7c0.1,0.7,0.2,1.9,0.2,3.3c0.9-1.8,2.8-3.8,6.6-3.8c4.6,0,7.5,2.8,7.5,8.9
					v20.8h-5.9V28c0-3.1-0.8-5.1-3.7-5.1c-3,0-4.4,1.8-4.4,6.8v17.8h-5.9V27.4z"/>
				<path d="M128.6,36.5c-0.2,2-1,11.6-11.2,11.6c-10.7,0-11.8-10-11.8-20c0-12,3.4-19.7,12.2-19.7c9.9,0,10.6,8.7,10.7,11.6h-5.9
					c-0.1-1.3-0.2-6.4-4.9-6.4c-4.9,0-5.9,6.3-5.9,14.7c0,7.5,0.8,14.8,5.7,14.8c4.5,0,4.9-5,5.1-6.6L128.6,36.5L128.6,36.5z"/>
				<path d="M133.5,47.6V7.2h5.9v40.4L133.5,47.6L133.5,47.6z"/>
				<path d="M145.7,18.4h5.9v29.2h-5.9V18.4z M145.7,7.2h5.9v6.4h-5.9V7.2z"/>
				<path d="M176.7,38c-0.1,2.1-0.7,10.1-9.9,10.1c-8.1,0-10.2-6.7-10.2-15.3c0-7.9,2.6-14.9,10.6-14.9c9.2,0,9.5,8.1,9.6,9.8h-6
					c-0.1-1.1-0.3-4.8-3.7-4.8s-4.5,3.8-4.5,10c0,6.6,1.1,10.4,4.4,10.4c3.5,0,3.8-3.5,4-5.2H176.7z"/>
				<path d="M186.9,31.3c2-3.4,5.4-8.8,7.9-12.9h6.5c-2.4,3.7-4.9,7.1-7.4,10.9l8,18.3h-6.7L190,33.9c-0.8,1.1-2.2,3.2-3,4.3v9.3
					h-5.9V7.2h5.9V31.3z"/>
			</g>
			<g>
				<path class="st1" d="M80.7,51.3h3.2c1.7,0,2.9,0.9,2.9,2.5c0,1.7-1.3,2.6-3,2.6h-1.6v3.3h-1.5L80.7,51.3L80.7,51.3z M82.3,55.2
					h1.4c1,0,1.6-0.4,1.6-1.3c0-0.9-0.6-1.3-1.5-1.3h-1.5V55.2z"/>
				<path class="st1" d="M91.6,51.3h1.5v3.4h3.5v-3.4h1.5v8.4h-1.5v-3.7h-3.5v3.7h-1.5V51.3z"/>
				<path class="st1" d="M110.9,55.5c0,2.4-1.3,4.3-3.9,4.3c-2.5,0-3.8-1.9-3.8-4.3c0-2.3,1.3-4.3,3.9-4.3
					C109.6,51.2,110.9,53,110.9,55.5z M104.8,55.5c0,1.7,0.8,3.1,2.3,3.1c1.6,0,2.2-1.4,2.2-3.1c0-1.7-0.7-3-2.3-3
					C105.5,52.4,104.8,53.8,104.8,55.5z"/>
				<path class="st1" d="M117.3,52.6h-2.5v-1.3h6.5v1.3h-2.5v7.1h-1.5L117.3,52.6L117.3,52.6z"/>
				<path class="st1" d="M132.9,55.5c0,2.4-1.3,4.3-3.9,4.3c-2.5,0-3.8-1.9-3.8-4.3c0-2.3,1.3-4.3,3.9-4.3
					C131.6,51.2,132.9,53,132.9,55.5z M126.8,55.5c0,1.7,0.8,3.1,2.3,3.1c1.6,0,2.2-1.4,2.2-3.1c0-1.7-0.7-3-2.3-3
					C127.5,52.4,126.8,53.8,126.8,55.5z"/>
				<path class="st1" d="M144.8,59.7h-1.1c-0.1-0.2-0.1-0.6-0.1-1c-0.4,0.8-1.2,1.1-2.4,1.1c-2.3,0-3.5-1.8-3.5-4.2
					c0-2.5,1.4-4.4,3.9-4.4c2,0,3.1,1.1,3.4,2.5h-1.5c-0.2-0.7-0.7-1.3-1.9-1.3c-1.7,0-2.3,1.5-2.3,3.1c0,1.6,0.6,3,2.2,3
					c1.6,0,1.9-1.1,1.9-2.2v-0.1h-1.9v-1.3h3.4C144.8,56.3,144.8,59.6,144.8,59.7z"/>
				<path class="st1" d="M151.6,56.2v3.5h-1.5v-8.4h3.4c1.7,0,2.7,0.9,2.7,2.2c0,1.1-0.6,1.7-1.3,2c0.7,0.2,1.1,0.8,1.1,2.1v0.3
					c0,0.7,0,1.3,0.1,1.8h-1.5c-0.1-0.3-0.2-1-0.2-1.9v-0.2c0-1-0.3-1.4-1.6-1.4L151.6,56.2L151.6,56.2L151.6,56.2z M151.6,54.9h1.5
					c1,0,1.6-0.3,1.6-1.2c0-0.8-0.5-1.2-1.4-1.2h-1.6L151.6,54.9L151.6,54.9z"/>
				<path class="st1" d="M162.7,57.5l-0.7,2.2h-1.5c0.1-0.4,2.6-7.9,2.8-8.4h1.9l2.9,8.4h-1.6l-0.7-2.2H162.7z M165.4,56.3
					c-0.6-1.9-1-3.1-1.2-3.8h0c-0.2,0.9-0.6,2.2-1.1,3.8H165.4z"/>
				<path class="st1" d="M172.7,51.3h3.2c1.6,0,2.9,0.9,2.9,2.5c0,1.7-1.3,2.6-3,2.6h-1.6v3.3h-1.5L172.7,51.3L172.7,51.3z
					 M174.2,55.2h1.4c1,0,1.6-0.4,1.6-1.3c0-0.9-0.6-1.3-1.5-1.3h-1.5L174.2,55.2L174.2,55.2z"/>
				<path class="st1" d="M183.5,51.3h1.5v3.4h3.5v-3.4h1.5v8.4h-1.5v-3.7h-3.5v3.7h-1.5V51.3z"/>
				<path class="st1" d="M197.3,59.7v-3.1c0-0.1,0-0.2-0.1-0.2l-2.8-5h1.7c0.7,1.3,1.6,3.1,2,3.9c0.5-1,1.3-2.7,2-3.9h1.6l-2.8,5
					c0,0.1-0.1,0.1-0.1,0.2v3.1L197.3,59.7L197.3,59.7z"/>
			</g>
		</g>
		<g>
			<path class="st2" d="M61.9,23.4c1.4,0.1,2.5,1.3,2.5,2.7V48c0,1.5-1.2,2.7-2.7,2.7H23.5c-1.5,0-2.7-1.2-2.7-2.7v-6.2l2,1l2.4-4.8
				l-4.4-2.2v-4.9l3.2,0.2l0.3-5.4l-3.4-0.2c0.3-1.1,1.3-1.8,2.4-1.9h10.1l0.7-3.6c0.2-1,1.1-1.7,2.1-1.7h6.5H49
				c1,0,1.9,0.7,2.1,1.7l0.7,3.6L61.9,23.4C61.9,23.4,61.9,23.4,61.9,23.4z M58.3,25.7c-1,0-1.9,0.8-1.9,1.9c0,1,0.8,1.9,1.9,1.9
				c1,0,1.8-0.8,1.8-1.9C60.2,26.5,59.3,25.7,58.3,25.7L58.3,25.7z"/>
			<path class="st3" d="M42.5,27.2c-1.3,0-2.6,0.2-3.8,0.7v0c-1.2,0.5-2.3,1.2-3.2,2.1l0,0h0c-0.9,0.9-1.6,2-2.1,3.2l0,0
				c-0.5,1.2-0.8,2.4-0.8,3.8c0,1.3,0.3,2.6,0.8,3.8l0,0c0.5,1.2,1.2,2.3,2.1,3.2h0l0,0c0.9,0.9,2,1.7,3.2,2.2l0,0
				c1.2,0.5,2.4,0.8,3.8,0.8c1.3,0,2.6-0.3,3.8-0.8l0,0c1.2-0.5,2.3-1.2,3.2-2.2h0l0,0c0.9-0.9,1.6-2,2.1-3.2l0,0
				c0.5-1.2,0.8-2.5,0.8-3.8c0-1.3-0.2-2.6-0.8-3.8l0,0c-0.5-1.2-1.2-2.3-2.1-3.2l0,0h0c-0.9-0.9-2-1.6-3.2-2.1v0
				C45.2,27.4,43.9,27.2,42.5,27.2L42.5,27.2z"/>
			<rect x="18.6" y="35.8" transform="matrix(0.453 -0.8915 0.8915 0.453 -23.2363 39.7126)" class="st4" width="4.3" height="6"/>
			<polygon class="st4" points="23.6,26.1 17.6,25.7 17.4,30 23.4,30.4 			"/>
			<polygon class="st4" points="17,32.2 13.4,32.1 13.2,34.6 16.8,34.8 			"/>
			<polygon class="st4" points="14.1,37.2 10.5,36.9 10.4,39.5 13.9,39.7 			"/>
			
				<rect x="15" y="40.7" transform="matrix(5.529833e-02 -0.9985 0.9985 5.529833e-02 -27.0716 56.4398)" class="st4" width="2.6" height="3.6"/>
			<polygon class="st4" points="13.2,28.2 10.6,26.8 9.5,28.7 12.2,30.1 			"/>
			<polygon class="st4" points="8.8,32.8 5.9,33.7 6.5,35.8 9.4,34.9 			"/>
			<polygon class="st4" points="9.8,41.2 6.8,42 7.5,44.1 10.4,43.2 			"/>
			<polygon class="st4" points="5.2,37.9 2.7,37.2 2.2,38.9 4.6,39.7 			"/>
			<polygon class="st4" points="5.9,29.7 3.5,28.9 2.9,30.7 5.4,31.4 			"/>
			<polygon class="st4" points="2.2,34.1 0.4,33.6 0,34.9 1.8,35.4 			"/>
			<path class="st5" d="M37.8,32.3c0.6-0.6,1.3-1.1,2.2-1.5c0.8-0.3,1.7-0.5,2.5-0.5c0.9,0,1.8,0.2,2.6,0.5c0.8,0.3,1.5,0.8,2.2,1.5
				c0.7,0.6,1.1,1.4,1.5,2.2c0.3,0.8,0.5,1.7,0.5,2.6c0,0.9-0.2,1.8-0.5,2.6c-0.3,0.8-0.8,1.5-1.5,2.2c-0.6,0.6-1.3,1.1-2.2,1.5
				c-0.8,0.3-1.6,0.5-2.6,0.5c-0.9,0-1.8-0.2-2.5-0.5c-0.8-0.3-1.5-0.8-2.2-1.5s-1.1-1.3-1.5-2.2c-0.3-0.8-0.5-1.7-0.5-2.6
				c0-0.9,0.2-1.8,0.5-2.6C36.7,33.7,37.2,33,37.8,32.3L37.8,32.3z"/>
			<g>
				<path class="st0" d="M42.2,0C27.6,0,15.2,9.4,10.6,22.5H16C20.3,12.2,30.4,5,42.2,5C58,5,70.7,17.8,70.7,33.5S58,62,42.2,62
					c-9.4,0-17.7-4.5-22.9-11.5h-6C19.2,60.4,30,67,42.2,67c18.5,0,33.5-15,33.5-33.5C75.7,15,60.7,0,42.2,0z"/>
			</g>
		</g>
	</g>
</g>
<g id="Layer_1_00000098901334955118688320000011953059109258651037_">
</g>
</svg>
