<?xml version="1.0" encoding="utf-8"?>
<!-- Generator: Adobe Illustrator 25.4.1, SVG Export Plug-In . SVG Version: 6.00 Build 0)  -->
<svg version="1.1" id="Layer_1" xmlns="http://www.w3.org/2000/svg" xmlns:xlink="http://www.w3.org/1999/xlink" x="0px" y="0px"
	 viewBox="0 0 201.94 67" style="enable-background:new 0 0 201.94 67;" xml:space="preserve">
<style type="text/css">
	.st0{fill:#FD0100;}
	.st1{fill:#5D5D5C;}
	.st2{fill-rule:evenodd;clip-rule:evenodd;fill:#0A0A0A;}
	.st3{fill-rule:evenodd;clip-rule:evenodd;fill:#FEFEFE;}
	.st4{fill-rule:evenodd;clip-rule:evenodd;fill:#FD0100;}
	.st5{fill-rule:evenodd;clip-rule:evenodd;fill:#ED1B23;}
</style>
<g id="Layer_13">
	<g>
		<g>
			<g>
				<path class="st0" d="M81.12,27.43c0-5.99-0.02-7.59-0.06-9.06h5.67c0.1,0.72,0.19,1.92,0.19,3.3c0.9-1.83,2.76-3.84,6.6-3.84
					c4.58,0,7.48,2.81,7.48,8.91v20.81h-5.9V28.04c0-3.12-0.78-5.11-3.69-5.11c-3.02,0-4.39,1.82-4.39,6.78v17.84h-5.9V27.43z"/>
				<path d="M128.63,36.55c-0.17,2.04-0.99,11.64-11.2,11.64c-10.7,0-11.79-10.02-11.79-19.99c0-12.02,3.41-19.7,12.22-19.7
					c9.88,0,10.58,8.73,10.72,11.56h-5.94c-0.1-1.31-0.24-6.42-4.88-6.42c-4.92,0-5.93,6.31-5.93,14.67
					c0,7.55,0.78,14.84,5.71,14.84c4.46,0,4.94-4.95,5.11-6.59L128.63,36.55L128.63,36.55z"/>
				<path d="M133.48,47.56V7.19h5.89v40.36h-5.89V47.56z"/>
				<path d="M145.69,18.37h5.89v29.19h-5.89V18.37z M145.73,7.19h5.89v6.45h-5.89V7.19z"/>
				<path d="M176.66,38c-0.11,2.08-0.68,10.07-9.94,10.07c-8.12,0-10.19-6.71-10.19-15.3c0-7.89,2.59-14.93,10.55-14.93
					c9.21,0,9.54,8.12,9.58,9.76h-5.96c-0.06-1.15-0.27-4.84-3.66-4.84s-4.54,3.75-4.54,10.03c0,6.61,1.15,10.36,4.42,10.36
					c3.51,0,3.83-3.53,4.02-5.15H176.66z"/>
				<path d="M186.95,31.27c1.98-3.41,5.44-8.83,7.92-12.9h6.51c-2.45,3.67-4.88,7.15-7.42,10.85l7.98,18.33h-6.68l-5.28-13.62
					c-0.81,1.1-2.24,3.24-3.03,4.28v9.34h-5.89V7.19h5.89V31.27z"/>
			</g>
			<g>
				<path class="st1" d="M80.74,51.31h3.18c1.65,0,2.89,0.89,2.89,2.49c0,1.73-1.27,2.59-2.98,2.59h-1.55v3.29h-1.53L80.74,51.31
					L80.74,51.31z M82.27,55.16h1.43c0.96,0,1.56-0.38,1.56-1.33c0-0.91-0.64-1.29-1.52-1.29h-1.47V55.16z"/>
				<path class="st1" d="M91.61,51.31h1.52v3.36h3.53v-3.36h1.52v8.37h-1.52v-3.74h-3.53v3.74h-1.52V51.31z"/>
				<path class="st1" d="M110.92,55.46c0,2.36-1.26,4.35-3.89,4.35c-2.53,0-3.78-1.92-3.78-4.33c0-2.26,1.3-4.28,3.89-4.28
					C109.57,51.2,110.92,53.04,110.92,55.46z M104.83,55.45c0,1.73,0.75,3.11,2.27,3.11c1.63,0,2.25-1.38,2.25-3.09
					c0-1.66-0.66-3.03-2.27-3.03C105.5,52.44,104.83,53.76,104.83,55.45z"/>
				<path class="st1" d="M117.33,52.58h-2.46v-1.27h6.46v1.27h-2.46v7.1h-1.53v-7.1H117.33z"/>
				<path class="st1" d="M132.9,55.46c0,2.36-1.26,4.35-3.89,4.35c-2.53,0-3.78-1.92-3.78-4.33c0-2.26,1.3-4.28,3.89-4.28
					C131.56,51.2,132.9,53.04,132.9,55.46z M126.81,55.45c0,1.73,0.75,3.11,2.27,3.11c1.63,0,2.25-1.38,2.25-3.09
					c0-1.66-0.66-3.03-2.27-3.03C127.49,52.44,126.81,53.76,126.81,55.45z"/>
				<path class="st1" d="M144.77,59.68h-1.13c-0.06-0.24-0.1-0.59-0.12-0.99c-0.43,0.75-1.24,1.12-2.43,1.12
					c-2.31,0-3.53-1.84-3.53-4.24c0-2.46,1.38-4.37,3.89-4.37c2,0,3.14,1.11,3.35,2.55h-1.51c-0.2-0.67-0.68-1.32-1.9-1.32
					c-1.67,0-2.26,1.46-2.26,3.12c0,1.6,0.62,3.04,2.24,3.04c1.55,0,1.91-1.07,1.91-2.17v-0.06h-1.95v-1.28h3.45
					C144.77,56.28,144.77,59.58,144.77,59.68z"/>
				<path class="st1" d="M151.55,56.16v3.52h-1.5v-8.37h3.4c1.67,0,2.7,0.87,2.7,2.25c0,1.14-0.63,1.72-1.31,1.97
					c0.68,0.23,1.15,0.8,1.15,2.08v0.3c0,0.66,0.01,1.35,0.12,1.78h-1.47c-0.13-0.35-0.16-0.99-0.16-1.9v-0.17
					c0-1.02-0.32-1.44-1.62-1.44h-1.31V56.16z M151.55,54.93h1.49c1,0,1.57-0.33,1.57-1.23c0-0.78-0.53-1.17-1.41-1.17h-1.65
					L151.55,54.93L151.55,54.93z"/>
				<path class="st1" d="M162.72,57.53l-0.7,2.16h-1.5c0.14-0.4,2.6-7.91,2.75-8.37h1.93l2.88,8.37h-1.61l-0.74-2.16H162.72z
					 M165.4,56.26c-0.62-1.88-1.02-3.06-1.21-3.79h-0.01c-0.21,0.87-0.63,2.19-1.14,3.79H165.4z"/>
				<path class="st1" d="M172.66,51.31h3.18c1.65,0,2.89,0.89,2.89,2.49c0,1.73-1.27,2.59-2.98,2.59h-1.55v3.29h-1.53L172.66,51.31
					L172.66,51.31z M174.19,55.16h1.43c0.96,0,1.56-0.38,1.56-1.33c0-0.91-0.64-1.29-1.52-1.29h-1.47L174.19,55.16L174.19,55.16z"/>
				<path class="st1" d="M183.53,51.31h1.52v3.36h3.53v-3.36h1.52v8.37h-1.52v-3.74h-3.53v3.74h-1.52V51.31z"/>
				<path class="st1" d="M197.32,59.68v-3.1c0-0.09-0.02-0.18-0.07-0.25l-2.79-5.02h1.72c0.66,1.29,1.59,3.09,1.97,3.88
					c0.47-1.01,1.34-2.65,1.98-3.88h1.6l-2.83,5c-0.04,0.06-0.06,0.11-0.06,0.24v3.12L197.32,59.68L197.32,59.68z"/>
			</g>
		</g>
		<g>
			<path class="st2" d="M61.89,23.44c1.38,0.14,2.47,1.29,2.47,2.72v21.82c0,1.49-1.21,2.72-2.72,2.72H23.45
				c-1.49,0-2.72-1.24-2.72-2.72v-6.15l1.97,0.98l2.44-4.83l-4.41-2.25v-4.94l3.2,0.17l0.28-5.42l-3.37-0.17
				c0.34-1.07,1.26-1.83,2.38-1.94H33.3l0.7-3.57c0.2-0.98,1.07-1.71,2.08-1.71h6.49H49c1.01,0,1.88,0.73,2.08,1.71l0.7,3.57h10.11
				V23.44z M58.29,25.66c-1.04,0-1.88,0.84-1.88,1.86c0,1.04,0.84,1.88,1.88,1.88c1.01,0,1.85-0.84,1.85-1.88
				C60.15,26.5,59.31,25.66,58.29,25.66L58.29,25.66z"/>
			<path class="st3" d="M42.54,27.17c-1.35,0-2.61,0.25-3.79,0.73v0.03c-1.21,0.48-2.3,1.23-3.2,2.13l0,0h-0.03
				c-0.9,0.93-1.63,1.99-2.13,3.23l0,0c-0.48,1.15-0.76,2.44-0.76,3.79c0,1.32,0.28,2.61,0.76,3.79l0,0c0.5,1.21,1.24,2.3,2.13,3.2
				h0.03l0,0c0.9,0.93,1.99,1.65,3.2,2.16l0,0c1.18,0.48,2.44,0.76,3.79,0.76c1.35,0,2.61-0.28,3.79-0.76l0,0
				c1.21-0.51,2.3-1.24,3.2-2.16h0.03l0,0c0.9-0.9,1.63-1.99,2.13-3.2l0,0c0.51-1.18,0.76-2.47,0.76-3.79
				c0-1.35-0.25-2.64-0.76-3.79l0,0c-0.51-1.24-1.24-2.3-2.13-3.23l0,0h-0.03c-0.9-0.9-1.99-1.65-3.2-2.13V27.9
				C45.15,27.43,43.89,27.17,42.54,27.17L42.54,27.17z"/>
			
				<rect x="18.57" y="35.78" transform="matrix(0.453 -0.8915 0.8915 0.453 -23.2323 39.7097)" class="st4" width="4.34" height="6.02"/>
			<polygon class="st4" points="23.64,26.08 17.64,25.74 17.38,30.04 23.39,30.37 			"/>
			<polygon class="st4" points="16.96,32.25 13.4,32.06 13.23,34.62 16.79,34.81 			"/>
			<polygon class="st4" points="14.1,37.17 10.53,36.94 10.39,39.5 13.93,39.73 			"/>
			
				<rect x="15.01" y="40.74" transform="matrix(0.0553 -0.9985 0.9985 0.0553 -27.0718 56.44)" class="st4" width="2.56" height="3.57"/>
			<polygon class="st4" points="13.23,28.24 10.56,26.81 9.52,28.72 12.21,30.15 			"/>
			<polygon class="st4" points="8.82,32.84 5.93,33.69 6.51,35.76 9.44,34.92 			"/>
			<polygon class="st4" points="9.77,41.16 6.85,42 7.47,44.08 10.39,43.23 			"/>
			<polygon class="st4" points="5.19,37.93 2.72,37.17 2.19,38.94 4.63,39.7 			"/>
			<polygon class="st4" points="5.93,29.67 3.45,28.91 2.92,30.68 5.36,31.44 			"/>
			<polygon class="st4" points="2.22,34.14 0.39,33.57 0,34.87 1.8,35.43 			"/>
			<path class="st5" d="M37.82,32.34c0.62-0.62,1.35-1.12,2.16-1.46c0.79-0.31,1.65-0.48,2.55-0.48c0.93,0,1.77,0.17,2.56,0.48
				c0.81,0.34,1.54,0.84,2.16,1.46c0.65,0.62,1.12,1.38,1.46,2.16c0.33,0.79,0.5,1.66,0.5,2.58c0,0.9-0.17,1.77-0.5,2.56
				c-0.34,0.81-0.81,1.54-1.46,2.16c-0.62,0.62-1.35,1.12-2.16,1.46c-0.79,0.31-1.63,0.51-2.56,0.51c-0.9,0-1.77-0.2-2.55-0.51
				c-0.81-0.34-1.54-0.84-2.16-1.46s-1.12-1.35-1.46-2.16c-0.34-0.79-0.51-1.66-0.51-2.56c0-0.93,0.17-1.8,0.51-2.58
				C36.7,33.72,37.21,32.96,37.82,32.34L37.82,32.34z"/>
			<g>
				<path class="st0" d="M42.24,0C27.62,0,15.16,9.42,10.6,22.5h5.35C20.27,12.23,30.43,5,42.24,5c15.71,0,28.5,12.79,28.5,28.5
					S57.95,62,42.24,62c-9.35,0-17.66-4.53-22.86-11.5h-5.99C19.22,60.37,29.97,67,42.24,67c18.47,0,33.5-15.03,33.5-33.5
					C75.74,15.03,60.71,0,42.24,0z"/>
			</g>
		</g>
	</g>
</g>
<g id="Layer_1_00000098901334955118688320000011953059109258651037_">
</g>
</svg>
